<svg width="24" height="24" viewBox="0 0 24 24" fill="none" xmlns="http://www.w3.org/2000/svg">
<g id="Group 48">
<circle id="Ellipse 112" cx="12" cy="12" r="12" fill="#28293D"/>
<path id="Union" fill-rule="evenodd" clip-rule="evenodd" d="M11.611 7.79232C11.135 7.39932 10.382 7.40375 9.90376 7.79859C9.65046 8.00771 9.5 8.3048 9.5 8.62611C9.5 8.94743 9.65046 9.24451 9.90376 9.45364L12.3828 11.5004L9.90376 13.5472C9.65046 13.7563 9.5 14.0534 9.5 14.3747C9.5 14.696 9.65046 14.9931 9.90376 15.2022C10.3847 15.5993 11.1301 15.5993 11.611 15.2022L15.0962 12.3248C15.3495 12.1157 15.5 11.8186 15.5 11.4973C15.5 11.1759 15.3495 10.8789 15.0962 10.6697L11.611 7.79232Z" fill="#34DB8A"/>
</g>
</svg>
