<?xml version="1.0" standalone="no"?>
<!DOCTYPE svg PUBLIC "-//W3C//DTD SVG 20010904//EN"
 "http://www.w3.org/TR/2001/REC-SVG-20010904/DTD/svg10.dtd">
<svg version="1.0" xmlns="http://www.w3.org/2000/svg"
 width="62.000000pt" height="62.000000pt" viewBox="0 0 62.000000 62.000000"
 preserveAspectRatio="xMidYMid meet">

<g transform="translate(0.000000,62.000000) scale(0.100000,-0.100000)"
fill="#000000" stroke="none">
<path d="M242 413 c-1 -7 -9 -13 -17 -13 -12 0 -15 -17 -15 -90 0 -89 0 -90
24 -90 14 0 35 -4 48 -9 14 -5 44 -4 76 2 l52 11 -2 65 -2 66 -3 -62 c-4 -57
-6 -63 -26 -63 -12 0 -32 -3 -44 -6 -22 -6 -23 -4 -23 59 0 36 4 69 10 72 11
7 -37 65 -54 65 -6 0 0 -7 12 -16 19 -13 22 -24 22 -79 0 -63 -1 -64 -22 -56
-20 7 -24 17 -29 82 -3 41 -6 68 -7 62z m18 -153 c11 0 24 -10 31 -22 10 -18
9 -20 -6 -15 -9 4 -28 7 -41 7 -23 0 -24 2 -24 73 0 93 14 111 18 23 3 -57 5
-66 22 -66z"/>
</g>
</svg>
