<svg width="62" height="62" viewBox="0 0 62 62" fill="none" xmlns="http://www.w3.org/2000/svg">
<g id="Ebook (inactif)">
<g id="eBook">
<g id="g907">
<g id="g921">
<path id="Union" fill-rule="evenodd" clip-rule="evenodd" d="M31.805 42.3008H30.195L29.9302 42.1116C28.7094 41.2396 27.2626 40.7702 25.7296 40.7702H20.75V21.8008H23.8008V18.7498H24.7916C28.191 18.7498 31.0644 21.2541 31.6496 24.5619C33.0422 23.7587 34.6218 23.3314 36.2704 23.3314H41.25V40.7702H36.2704C34.7374 40.7702 33.2906 41.2396 32.0698 42.1116L31.805 42.3008ZM31.7584 26.8926H31.805L32.0698 26.7035C33.2906 25.8314 34.7374 25.362 36.2704 25.362H39.2194V38.7396H36.2704C34.6646 38.7396 33.1242 39.145 31.7584 39.9083V26.8926ZM29.5592 39.5633C28.3711 39.0234 27.0733 38.7396 25.7296 38.7396H22.7806V23.8314H23.8008V35.9895H24.7916C27.021 35.9895 28.9318 37.4975 29.5592 39.5633ZM25.7824 20.8635V34.0487C27.333 34.2751 28.7265 35.024 29.7768 36.1145V25.8066C29.7768 23.3719 28.0477 21.3316 25.7824 20.8635Z" fill="#1B3B36"/>
</g>
</g>
</g>
</g>
</svg>
