<svg width="15" height="17" viewBox="0 0 15 17" fill="none" xmlns="http://www.w3.org/2000/svg">
<g id="Group 79">
<g id="Group 71">
<g id="#000000ff">
<path id="Vector" d="M11.6656 0.0214844H1.10912C0.934466 0.0429586 0.767992 0.137776 0.687244 0.286113C0.601873 0.427843 0.627485 0.595012 0.624284 0.749957C0.624284 5.27706 0.62464 9.80383 0.623928 14.3306C0.615746 14.5153 0.720325 14.7026 0.897116 14.7915C1.04829 14.8751 1.23006 14.8559 1.39796 14.8575C1.99094 14.8572 2.58391 14.8572 3.17689 14.8575C3.17831 15.3868 3.17511 15.9157 3.17795 16.4447C3.17511 16.6928 3.39636 16.9098 3.65888 16.9366H14.2065C14.4712 16.9118 14.6956 16.6924 14.6917 16.4427C14.6928 11.828 14.6924 7.21337 14.6917 2.59872C14.6978 2.33839 14.4523 2.1035 14.1717 2.1025C13.4944 2.09755 12.8171 2.1025 12.1395 2.10052C12.138 1.57126 12.1412 1.04201 12.1384 0.513079C12.142 0.267612 11.9243 0.0532002 11.6656 0.0214844ZM11.0723 1.0126C11.0723 1.37535 11.0723 1.7381 11.072 2.10052C8.61825 2.10151 6.16418 2.0992 3.71046 2.10184C3.4266 2.09722 3.17333 2.33079 3.1776 2.59476C3.17582 6.35176 3.17795 10.1091 3.17689 13.8661C2.68173 13.8664 2.18658 13.8664 1.69143 13.8661C1.69107 9.58182 1.69178 5.29754 1.69107 1.01293C4.81815 1.01227 7.94524 1.0126 11.0723 1.0126ZM13.6249 3.09197C13.6253 7.37625 13.6246 11.6609 13.6249 15.9451C10.4982 15.9458 7.37111 15.9455 4.24439 15.9455C4.24439 11.6609 4.24403 7.37625 4.24439 3.09197C7.37111 3.09164 10.4978 3.09164 13.6249 3.09197Z" fill="#8F90A6"/>
<path id="Vector_2" d="M11.8809 4.15875C11.6237 4.11746 11.3537 4.28033 11.2879 4.51456C11.2047 4.76036 11.3722 5.04514 11.6365 5.11849C11.9136 5.21231 12.2445 5.04151 12.3142 4.77754C12.4056 4.50432 12.1836 4.19542 11.8809 4.15875Z" fill="#8F90A6"/>
<path id="Vector_3" d="M10.8934 6.68995C10.2168 6.49668 9.44779 6.67838 8.93556 7.12736C8.54712 6.78972 8.01533 6.59546 7.48211 6.61528C6.92862 6.6285 6.38865 6.86835 6.02653 7.25654C5.67651 7.62391 5.49616 8.12244 5.5296 8.61173C5.55984 9.35639 5.90488 10.0637 6.39434 10.6445C6.97131 11.3274 7.72151 11.8718 8.53325 12.2954C8.71573 12.4021 8.95121 12.4748 9.15717 12.38C9.65766 12.1381 10.1226 11.8362 10.558 11.5045C11.2032 11.0036 11.7845 10.4004 12.1078 9.6709C12.3643 9.08713 12.4401 8.40755 12.1815 7.81288C11.9623 7.28429 11.4821 6.84985 10.8934 6.68995ZM10.8731 7.77522C11.1734 7.9936 11.3064 8.3656 11.2712 8.71183C11.2249 9.25794 10.9098 9.7492 10.5302 10.1546C10.0742 10.6382 9.5168 11.031 8.92809 11.3647C8.25366 10.9904 7.62227 10.5272 7.15308 9.93685C6.81266 9.5077 6.57718 8.98538 6.59532 8.44522C6.60777 8.12674 6.82547 7.82676 7.13529 7.69131C7.51128 7.51555 7.99897 7.61532 8.26967 7.91167C8.42476 8.0534 8.44183 8.28763 8.63498 8.39863C8.88221 8.56646 9.27242 8.47958 9.40582 8.22255C9.47483 8.07619 9.55877 7.93149 9.69395 7.82808C10.0095 7.55916 10.5345 7.52315 10.8731 7.77522Z" fill="#8F90A6"/>
<path id="Vector_4" d="M5.94024 13.9679C5.68022 13.913 5.39671 14.072 5.32486 14.3102C5.23273 14.5639 5.41165 14.8629 5.69018 14.9289C5.97012 15.0119 6.29204 14.8312 6.35323 14.5662C6.42899 14.3049 6.22481 14.0165 5.94024 13.9679Z" fill="#8F90A6"/>
</g>
</g>
</g>
</svg>
