<svg width="19" height="16" viewBox="0 0 19 16" fill="none" xmlns="http://www.w3.org/2000/svg">
<g id="Crown">
<path id="Vector" d="M2.19826 12.19C2.77967 12.19 3.25101 11.7186 3.25101 11.1372C3.25101 10.5558 2.77967 10.0845 2.19826 10.0845C1.61684 10.0845 1.14551 10.5558 1.14551 11.1372C1.14551 11.7186 1.61684 12.19 2.19826 12.19Z" fill="url(#paint0_radial_1536_13041)"/>
<path id="Vector_2" d="M16.6265 12.1983C17.2079 12.1983 17.6792 11.7269 17.6792 11.1455C17.6792 10.5641 17.2079 10.0928 16.6265 10.0928C16.0451 10.0928 15.5737 10.5641 15.5737 11.1455C15.5737 11.7269 16.0451 12.1983 16.6265 12.1983Z" fill="url(#paint1_radial_1536_13041)"/>
<path id="Vector_3" d="M16.6265 12.1983C17.2079 12.1983 17.6792 11.7269 17.6792 11.1455C17.6792 10.5641 17.2079 10.0928 16.6265 10.0928C16.0451 10.0928 15.5737 10.5641 15.5737 11.1455C15.5737 11.7269 16.0451 12.1983 16.6265 12.1983Z" fill="url(#paint2_radial_1536_13041)"/>
<path id="Vector_4" d="M4.6616 4.23486C4.25429 4.84582 3.958 5.67742 3.85547 5.99559L5.44655 7.14115L6.66102 5.60315C6.51785 5.38218 6.17734 4.88981 5.98217 4.63524C5.787 4.38067 5.49251 4.06956 5.37229 3.9458L4.6616 4.23486Z" fill="url(#paint3_radial_1536_13041)"/>
<path id="Vector_5" d="M4.6616 4.23486C4.25429 4.84582 3.958 5.67742 3.85547 5.99559L5.44655 7.14115L6.66102 5.60315C6.51785 5.38218 6.17734 4.88981 5.98217 4.63524C5.787 4.38067 5.49251 4.06956 5.37229 3.9458L4.6616 4.23486Z" fill="url(#paint4_radial_1536_13041)"/>
<path id="Vector_6" d="M14.1552 4.23486C14.5625 4.84582 14.8587 5.67742 14.9613 5.99559L13.3702 7.14115L12.1558 5.60315C12.2989 5.38218 12.6394 4.88981 12.8346 4.63524C13.0298 4.38067 13.3243 4.06956 13.4445 3.9458L14.1552 4.23486Z" fill="url(#paint5_radial_1536_13041)"/>
<path id="Vector_7" d="M14.1552 4.23486C14.5625 4.84582 14.8587 5.67742 14.9613 5.99559L13.3702 7.14115L12.1558 5.60315C12.2989 5.38218 12.6394 4.88981 12.8346 4.63524C13.0298 4.38067 13.3243 4.06956 13.4445 3.9458L14.1552 4.23486Z" fill="url(#paint6_radial_1536_13041)"/>
<path id="Vector_8" d="M14.1552 4.23486C14.5625 4.84582 14.8587 5.67742 14.9613 5.99559L13.3702 7.14115L12.1558 5.60315C12.2989 5.38218 12.6394 4.88981 12.8346 4.63524C13.0298 4.38067 13.3243 4.06956 13.4445 3.9458L14.1552 4.23486Z" fill="url(#paint7_radial_1536_13041)"/>
<g id="Group" filter="url(#filter0_ii_1536_13041)">
<path id="Vector_9" d="M0.668457 4.28281L2.77713 14.5733C2.88067 15.0786 3.32535 15.4414 3.84118 15.4414H14.9761C15.492 15.4414 15.9366 15.0786 16.0402 14.5733L18.1489 4.28281L17.4757 3.95397C16.4678 4.68584 14.3584 6.18678 13.8135 6.51562C13.379 6.77779 12.9799 6.35045 12.8973 6.22921C12.1387 5.11549 10.9817 3.49446 10.5489 2.9251C10.1055 2.34171 9.60459 2.05355 9.40867 2.02881C9.21275 2.05355 8.71183 2.34171 8.2684 2.9251C7.83563 3.49446 6.67867 5.11549 5.92005 6.22921C5.83744 6.35045 5.43834 6.77779 5.00384 6.51562C4.45891 6.18678 2.34954 4.68584 1.34161 3.95397L0.668457 4.28281Z" fill="url(#paint8_linear_1536_13041)"/>
<path id="Vector_10" d="M0.668457 4.28281L2.77713 14.5733C2.88067 15.0786 3.32535 15.4414 3.84118 15.4414H14.9761C15.492 15.4414 15.9366 15.0786 16.0402 14.5733L18.1489 4.28281L17.4757 3.95397C16.4678 4.68584 14.3584 6.18678 13.8135 6.51562C13.379 6.77779 12.9799 6.35045 12.8973 6.22921C12.1387 5.11549 10.9817 3.49446 10.5489 2.9251C10.1055 2.34171 9.60459 2.05355 9.40867 2.02881C9.21275 2.05355 8.71183 2.34171 8.2684 2.9251C7.83563 3.49446 6.67867 5.11549 5.92005 6.22921C5.83744 6.35045 5.43834 6.77779 5.00384 6.51562C4.45891 6.18678 2.34954 4.68584 1.34161 3.95397L0.668457 4.28281Z" fill="url(#paint9_radial_1536_13041)"/>
</g>
<path id="Vector_11" d="M0.668457 4.28281L2.77713 14.5733C2.88067 15.0786 3.32535 15.4414 3.84118 15.4414H14.9761C15.492 15.4414 15.9366 15.0786 16.0402 14.5733L18.1489 4.28281L17.4757 3.95397C16.4678 4.68584 14.3584 6.18678 13.8135 6.51562C13.379 6.77779 12.9799 6.35045 12.8973 6.22921C12.1387 5.11549 10.9817 3.49446 10.5489 2.9251C10.1055 2.34171 9.60459 2.05355 9.40867 2.02881C9.21275 2.05355 8.71183 2.34171 8.2684 2.9251C7.83563 3.49446 6.67867 5.11549 5.92005 6.22921C5.83744 6.35045 5.43834 6.77779 5.00384 6.51562C4.45891 6.18678 2.34954 4.68584 1.34161 3.95397L0.668457 4.28281Z" fill="url(#paint10_linear_1536_13041)"/>
<path id="Vector_12" d="M0.668457 4.28281L2.77713 14.5733C2.88067 15.0786 3.32535 15.4414 3.84118 15.4414H14.9761C15.492 15.4414 15.9366 15.0786 16.0402 14.5733L18.1489 4.28281L17.4757 3.95397C16.4678 4.68584 14.3584 6.18678 13.8135 6.51562C13.379 6.77779 12.9799 6.35045 12.8973 6.22921C12.1387 5.11549 10.9817 3.49446 10.5489 2.9251C10.1055 2.34171 9.60459 2.05355 9.40867 2.02881C9.21275 2.05355 8.71183 2.34171 8.2684 2.9251C7.83563 3.49446 6.67867 5.11549 5.92005 6.22921C5.83744 6.35045 5.43834 6.77779 5.00384 6.51562C4.45891 6.18678 2.34954 4.68584 1.34161 3.95397L0.668457 4.28281Z" fill="url(#paint11_linear_1536_13041)"/>
<path id="Vector_13" d="M0.668457 4.28281L2.77713 14.5733C2.88067 15.0786 3.32535 15.4414 3.84118 15.4414H14.9761C15.492 15.4414 15.9366 15.0786 16.0402 14.5733L18.1489 4.28281L17.4757 3.95397C16.4678 4.68584 14.3584 6.18678 13.8135 6.51562C13.379 6.77779 12.9799 6.35045 12.8973 6.22921C12.1387 5.11549 10.9817 3.49446 10.5489 2.9251C10.1055 2.34171 9.60459 2.05355 9.40867 2.02881C9.21275 2.05355 8.71183 2.34171 8.2684 2.9251C7.83563 3.49446 6.67867 5.11549 5.92005 6.22921C5.83744 6.35045 5.43834 6.77779 5.00384 6.51562C4.45891 6.18678 2.34954 4.68584 1.34161 3.95397L0.668457 4.28281Z" fill="url(#paint12_linear_1536_13041)"/>
<path id="Vector_14" d="M0.668457 4.28281L2.77713 14.5733C2.88067 15.0786 3.32535 15.4414 3.84118 15.4414H14.9761C15.492 15.4414 15.9366 15.0786 16.0402 14.5733L18.1489 4.28281L17.4757 3.95397C16.4678 4.68584 14.3584 6.18678 13.8135 6.51562C13.379 6.77779 12.9799 6.35045 12.8973 6.22921C12.1387 5.11549 10.9817 3.49446 10.5489 2.9251C10.1055 2.34171 9.60459 2.05355 9.40867 2.02881C9.21275 2.05355 8.71183 2.34171 8.2684 2.9251C7.83563 3.49446 6.67867 5.11549 5.92005 6.22921C5.83744 6.35045 5.43834 6.77779 5.00384 6.51562C4.45891 6.18678 2.34954 4.68584 1.34161 3.95397L0.668457 4.28281Z" fill="url(#paint13_radial_1536_13041)"/>
<path id="Vector_15" d="M0.668457 4.28281L2.77713 14.5733C2.88067 15.0786 3.32535 15.4414 3.84118 15.4414H14.9761C15.492 15.4414 15.9366 15.0786 16.0402 14.5733L18.1489 4.28281L17.4757 3.95397C16.4678 4.68584 14.3584 6.18678 13.8135 6.51562C13.379 6.77779 12.9799 6.35045 12.8973 6.22921C12.1387 5.11549 10.9817 3.49446 10.5489 2.9251C10.1055 2.34171 9.60459 2.05355 9.40867 2.02881C9.21275 2.05355 8.71183 2.34171 8.2684 2.9251C7.83563 3.49446 6.67867 5.11549 5.92005 6.22921C5.83744 6.35045 5.43834 6.77779 5.00384 6.51562C4.45891 6.18678 2.34954 4.68584 1.34161 3.95397L0.668457 4.28281Z" fill="url(#paint14_radial_1536_13041)"/>
<path id="Vector_16" d="M0.668457 4.28281L2.77713 14.5733C2.88067 15.0786 3.32535 15.4414 3.84118 15.4414H14.9761C15.492 15.4414 15.9366 15.0786 16.0402 14.5733L18.1489 4.28281L17.4757 3.95397C16.4678 4.68584 14.3584 6.18678 13.8135 6.51562C13.379 6.77779 12.9799 6.35045 12.8973 6.22921C12.1387 5.11549 10.9817 3.49446 10.5489 2.9251C10.1055 2.34171 9.60459 2.05355 9.40867 2.02881C9.21275 2.05355 8.71183 2.34171 8.2684 2.9251C7.83563 3.49446 6.67867 5.11549 5.92005 6.22921C5.83744 6.35045 5.43834 6.77779 5.00384 6.51562C4.45891 6.18678 2.34954 4.68584 1.34161 3.95397L0.668457 4.28281Z" fill="url(#paint15_radial_1536_13041)"/>
<g id="Group_2" filter="url(#filter1_di_1536_13041)">
<path id="Vector_17" d="M14.6893 11.4713C14.5093 12.0242 13.9308 12.3013 13.3779 12.1213C12.9617 11.9516 12.7816 11.4756 12.9617 10.9228C13.1416 10.3699 13.7084 10.0527 14.0515 10.1643C14.6044 10.3443 14.8693 10.9185 14.6893 11.4713Z" fill="url(#paint16_radial_1536_13041)"/>
<path id="Vector_18" d="M14.6893 11.4713C14.5093 12.0242 13.9308 12.3013 13.3779 12.1213C12.9617 11.9516 12.7816 11.4756 12.9617 10.9228C13.1416 10.3699 13.7084 10.0527 14.0515 10.1643C14.6044 10.3443 14.8693 10.9185 14.6893 11.4713Z" fill="url(#paint17_radial_1536_13041)"/>
</g>
<g id="Group_3" filter="url(#filter2_di_1536_13041)">
<path id="Vector_19" d="M4.17952 11.4713C4.35949 12.0242 4.93799 12.3013 5.49087 12.1213C5.90721 11.9516 6.08717 11.4756 5.90721 10.9228C5.72717 10.3699 5.16042 10.0527 4.8173 10.1643C4.26445 10.3443 3.99954 10.9185 4.17952 11.4713Z" fill="url(#paint18_radial_1536_13041)"/>
<path id="Vector_20" d="M4.17952 11.4713C4.35949 12.0242 4.93799 12.3013 5.49087 12.1213C5.90721 11.9516 6.08717 11.4756 5.90721 10.9228C5.72717 10.3699 5.16042 10.0527 4.8173 10.1643C4.26445 10.3443 3.99954 10.9185 4.17952 11.4713Z" fill="url(#paint19_radial_1536_13041)"/>
</g>
<path id="Vector_21" d="M1.88806 4.1276C1.88806 4.64896 1.4654 5.07162 0.944031 5.07162C0.42266 5.07162 0 4.64896 0 4.1276C0 3.60625 0.42266 3.18359 0.944031 3.18359C1.4654 3.18359 1.88806 3.60625 1.88806 4.1276Z" fill="url(#paint20_radial_1536_13041)"/>
<path id="Vector_22" d="M1.88806 4.1276C1.88806 4.64896 1.4654 5.07162 0.944031 5.07162C0.42266 5.07162 0 4.64896 0 4.1276C0 3.60625 0.42266 3.18359 0.944031 3.18359C1.4654 3.18359 1.88806 3.60625 1.88806 4.1276Z" fill="url(#paint21_radial_1536_13041)"/>
<path id="Vector_23" d="M1.88806 4.1276C1.88806 4.64896 1.4654 5.07162 0.944031 5.07162C0.42266 5.07162 0 4.64896 0 4.1276C0 3.60625 0.42266 3.18359 0.944031 3.18359C1.4654 3.18359 1.88806 3.60625 1.88806 4.1276Z" fill="url(#paint22_radial_1536_13041)"/>
<path id="Vector_24" d="M1.88806 4.1276C1.88806 4.64896 1.4654 5.07162 0.944031 5.07162C0.42266 5.07162 0 4.64896 0 4.1276C0 3.60625 0.42266 3.18359 0.944031 3.18359C1.4654 3.18359 1.88806 3.60625 1.88806 4.1276Z" fill="url(#paint23_radial_1536_13041)"/>
<path id="Vector_25" d="M5.52595 4.30037C5.80544 4.1365 5.99307 3.83292 5.99307 3.48555C5.99307 2.96412 5.57035 2.5415 5.049 2.5415C4.52763 2.5415 4.10498 2.96412 4.10498 3.48555C4.10498 3.84677 4.30787 4.1606 4.6059 4.31931C4.66502 4.29583 4.77289 4.27261 4.8899 4.30628C5.03538 4.34817 5.27431 4.40098 5.52595 4.30037Z" fill="url(#paint24_radial_1536_13041)"/>
<path id="Vector_26" d="M5.52595 4.30037C5.80544 4.1365 5.99307 3.83292 5.99307 3.48555C5.99307 2.96412 5.57035 2.5415 5.049 2.5415C4.52763 2.5415 4.10498 2.96412 4.10498 3.48555C4.10498 3.84677 4.30787 4.1606 4.6059 4.31931C4.66502 4.29583 4.77289 4.27261 4.8899 4.30628C5.03538 4.34817 5.27431 4.40098 5.52595 4.30037Z" fill="url(#paint25_radial_1536_13041)"/>
<path id="Vector_27" d="M5.52595 4.30037C5.80544 4.1365 5.99307 3.83292 5.99307 3.48555C5.99307 2.96412 5.57035 2.5415 5.049 2.5415C4.52763 2.5415 4.10498 2.96412 4.10498 3.48555C4.10498 3.84677 4.30787 4.1606 4.6059 4.31931C4.66502 4.29583 4.77289 4.27261 4.8899 4.30628C5.03538 4.34817 5.27431 4.40098 5.52595 4.30037Z" fill="url(#paint26_radial_1536_13041)"/>
<path id="Vector_28" d="M5.52595 4.30037C5.80544 4.1365 5.99307 3.83292 5.99307 3.48555C5.99307 2.96412 5.57035 2.5415 5.049 2.5415C4.52763 2.5415 4.10498 2.96412 4.10498 3.48555C4.10498 3.84677 4.30787 4.1606 4.6059 4.31931C4.66502 4.29583 4.77289 4.27261 4.8899 4.30628C5.03538 4.34817 5.27431 4.40098 5.52595 4.30037Z" fill="url(#paint27_radial_1536_13041)"/>
<g id="Group_4" filter="url(#filter3_i_1536_13041)">
<path id="Vector_29" d="M13.2908 4.30037C13.0114 4.1365 12.8237 3.83292 12.8237 3.48555C12.8237 2.96412 13.2465 2.5415 13.7678 2.5415C14.2892 2.5415 14.7118 2.96412 14.7118 3.48555C14.7118 3.84677 14.5089 4.1606 14.2109 4.31931C14.1518 4.29583 14.0439 4.27261 13.9269 4.30628C13.7814 4.34817 13.5425 4.40098 13.2908 4.30037Z" fill="url(#paint28_radial_1536_13041)"/>
<path id="Vector_30" d="M13.2908 4.30037C13.0114 4.1365 12.8237 3.83292 12.8237 3.48555C12.8237 2.96412 13.2465 2.5415 13.7678 2.5415C14.2892 2.5415 14.7118 2.96412 14.7118 3.48555C14.7118 3.84677 14.5089 4.1606 14.2109 4.31931C14.1518 4.29583 14.0439 4.27261 13.9269 4.30628C13.7814 4.34817 13.5425 4.40098 13.2908 4.30037Z" fill="url(#paint29_radial_1536_13041)"/>
</g>
<g id="Group_5" filter="url(#filter4_di_1536_13041)">
<path id="Vector_31" d="M9.43462 12.8639C10.3599 12.8639 11.11 12.1138 11.11 11.1885C11.11 10.2633 10.3599 9.51318 9.43462 9.51318C8.50936 9.51318 7.75928 10.2633 7.75928 11.1885C7.75928 12.1138 8.50936 12.8639 9.43462 12.8639Z" fill="url(#paint30_radial_1536_13041)"/>
</g>
<g id="Group_6" filter="url(#filter5_f_1536_13041)">
<path id="Vector_32" d="M9.55176 2.3832C9.66845 2.36905 9.96755 2.42987 10.2306 2.78626C10.4937 3.14267 12.0939 5.42388 12.8612 6.51995C13.0097 6.74974 13.4488 7.11184 14.0174 6.7215C14.5859 6.33116 16.4145 5.00747 17.104 4.54782" stroke="url(#paint31_linear_1536_13041)" stroke-width="0.15"/>
<path id="Vector_33" d="M9.55176 2.3832C9.66845 2.36905 9.96755 2.42987 10.2306 2.78626C10.4937 3.14267 12.0939 5.42388 12.8612 6.51995C13.0097 6.74974 13.4488 7.11184 14.0174 6.7215C14.5859 6.33116 16.4145 5.00747 17.104 4.54782" stroke="url(#paint32_radial_1536_13041)" stroke-width="0.15"/>
</g>
<path id="Vector_34" d="M9.40557 2.44492C10.0807 2.44492 10.628 1.89761 10.628 1.22246C10.628 0.547315 10.0807 0 9.40557 0C8.73042 0 8.18311 0.547315 8.18311 1.22246C8.18311 1.89761 8.73042 2.44492 9.40557 2.44492Z" fill="url(#paint33_radial_1536_13041)"/>
<path id="Vector_35" d="M9.40557 2.44492C10.0807 2.44492 10.628 1.89761 10.628 1.22246C10.628 0.547315 10.0807 0 9.40557 0C8.73042 0 8.18311 0.547315 8.18311 1.22246C8.18311 1.89761 8.73042 2.44492 9.40557 2.44492Z" fill="url(#paint34_radial_1536_13041)"/>
<path id="Vector_36" d="M9.40557 2.44492C10.0807 2.44492 10.628 1.89761 10.628 1.22246C10.628 0.547315 10.0807 0 9.40557 0C8.73042 0 8.18311 0.547315 8.18311 1.22246C8.18311 1.89761 8.73042 2.44492 9.40557 2.44492Z" fill="url(#paint35_radial_1536_13041)"/>
<path id="Vector_37" d="M9.40557 2.44492C10.0807 2.44492 10.628 1.89761 10.628 1.22246C10.628 0.547315 10.0807 0 9.40557 0C8.73042 0 8.18311 0.547315 8.18311 1.22246C8.18311 1.89761 8.73042 2.44492 9.40557 2.44492Z" fill="url(#paint36_radial_1536_13041)"/>
<path id="Vector_38" d="M18.8593 4.1276C18.8593 4.64896 18.4366 5.07162 17.9152 5.07162C17.3938 5.07162 16.9712 4.64896 16.9712 4.1276C16.9712 3.60625 17.3938 3.18359 17.9152 3.18359C18.4366 3.18359 18.8593 3.60625 18.8593 4.1276Z" fill="url(#paint37_radial_1536_13041)"/>
<path id="Vector_39" d="M18.8593 4.1276C18.8593 4.64896 18.4366 5.07162 17.9152 5.07162C17.3938 5.07162 16.9712 4.64896 16.9712 4.1276C16.9712 3.60625 17.3938 3.18359 17.9152 3.18359C18.4366 3.18359 18.8593 3.60625 18.8593 4.1276Z" fill="url(#paint38_radial_1536_13041)"/>
<path id="Vector_40" d="M18.8593 4.1276C18.8593 4.64896 18.4366 5.07162 17.9152 5.07162C17.3938 5.07162 16.9712 4.64896 16.9712 4.1276C16.9712 3.60625 17.3938 3.18359 17.9152 3.18359C18.4366 3.18359 18.8593 3.60625 18.8593 4.1276Z" fill="url(#paint39_radial_1536_13041)"/>
<path id="Vector_41" d="M18.8593 4.1276C18.8593 4.64896 18.4366 5.07162 17.9152 5.07162C17.3938 5.07162 16.9712 4.64896 16.9712 4.1276C16.9712 3.60625 17.3938 3.18359 17.9152 3.18359C18.4366 3.18359 18.8593 3.60625 18.8593 4.1276Z" fill="url(#paint40_radial_1536_13041)"/>
</g>
<defs>
<filter id="filter0_ii_1536_13041" x="0.268457" y="1.92881" width="18.2805" height="13.5126" filterUnits="userSpaceOnUse" color-interpolation-filters="sRGB">
<feFlood flood-opacity="0" result="BackgroundImageFix"/>
<feBlend mode="normal" in="SourceGraphic" in2="BackgroundImageFix" result="shape"/>
<feColorMatrix in="SourceAlpha" type="matrix" values="0 0 0 0 0 0 0 0 0 0 0 0 0 0 0 0 0 0 127 0" result="hardAlpha"/>
<feOffset dx="0.4" dy="-0.1"/>
<feGaussianBlur stdDeviation="0.25"/>
<feComposite in2="hardAlpha" operator="arithmetic" k2="-1" k3="1"/>
<feColorMatrix type="matrix" values="0 0 0 0 0.803922 0 0 0 0 0.580392 0 0 0 0 0.262745 0 0 0 1 0"/>
<feBlend mode="normal" in2="shape" result="effect1_innerShadow_1536_13041"/>
<feColorMatrix in="SourceAlpha" type="matrix" values="0 0 0 0 0 0 0 0 0 0 0 0 0 0 0 0 0 0 127 0" result="hardAlpha"/>
<feOffset dx="-0.4" dy="-0.1"/>
<feGaussianBlur stdDeviation="0.25"/>
<feComposite in2="hardAlpha" operator="arithmetic" k2="-1" k3="1"/>
<feColorMatrix type="matrix" values="0 0 0 0 0.894118 0 0 0 0 0.686275 0 0 0 0 0.301961 0 0 0 1 0"/>
<feBlend mode="normal" in2="effect1_innerShadow_1536_13041" result="effect2_innerShadow_1536_13041"/>
</filter>
<filter id="filter1_di_1536_13041" x="11.8921" y="9.64209" width="3.35303" height="3.53369" filterUnits="userSpaceOnUse" color-interpolation-filters="sRGB">
<feFlood flood-opacity="0" result="BackgroundImageFix"/>
<feColorMatrix in="SourceAlpha" type="matrix" values="0 0 0 0 0 0 0 0 0 0 0 0 0 0 0 0 0 0 127 0" result="hardAlpha"/>
<feOffset dx="-0.25" dy="0.25"/>
<feGaussianBlur stdDeviation="0.375"/>
<feComposite in2="hardAlpha" operator="out"/>
<feColorMatrix type="matrix" values="0 0 0 0 1 0 0 0 0 0.54902 0 0 0 0 0.305882 0 0 0 1 0"/>
<feBlend mode="normal" in2="BackgroundImageFix" result="effect1_dropShadow_1536_13041"/>
<feBlend mode="normal" in="SourceGraphic" in2="effect1_dropShadow_1536_13041" result="shape"/>
<feColorMatrix in="SourceAlpha" type="matrix" values="0 0 0 0 0 0 0 0 0 0 0 0 0 0 0 0 0 0 127 0" result="hardAlpha"/>
<feOffset dx="0.15" dy="-0.15"/>
<feGaussianBlur stdDeviation="0.25"/>
<feComposite in2="hardAlpha" operator="arithmetic" k2="-1" k3="1"/>
<feColorMatrix type="matrix" values="0 0 0 0 0.984314 0 0 0 0 0.219608 0 0 0 0 0.254902 0 0 0 1 0"/>
<feBlend mode="normal" in2="shape" result="effect2_innerShadow_1536_13041"/>
</filter>
<filter id="filter2_di_1536_13041" x="3.12354" y="9.64209" width="3.35303" height="3.53369" filterUnits="userSpaceOnUse" color-interpolation-filters="sRGB">
<feFlood flood-opacity="0" result="BackgroundImageFix"/>
<feColorMatrix in="SourceAlpha" type="matrix" values="0 0 0 0 0 0 0 0 0 0 0 0 0 0 0 0 0 0 127 0" result="hardAlpha"/>
<feOffset dx="-0.25" dy="0.25"/>
<feGaussianBlur stdDeviation="0.375"/>
<feComposite in2="hardAlpha" operator="out"/>
<feColorMatrix type="matrix" values="0 0 0 0 0.905882 0 0 0 0 0.439216 0 0 0 0 0.278431 0 0 0 1 0"/>
<feBlend mode="normal" in2="BackgroundImageFix" result="effect1_dropShadow_1536_13041"/>
<feBlend mode="normal" in="SourceGraphic" in2="effect1_dropShadow_1536_13041" result="shape"/>
<feColorMatrix in="SourceAlpha" type="matrix" values="0 0 0 0 0 0 0 0 0 0 0 0 0 0 0 0 0 0 127 0" result="hardAlpha"/>
<feOffset dx="0.3" dy="0.3"/>
<feGaussianBlur stdDeviation="0.3"/>
<feComposite in2="hardAlpha" operator="arithmetic" k2="-1" k3="1"/>
<feColorMatrix type="matrix" values="0 0 0 0 0.796078 0 0 0 0 0.141176 0 0 0 0 0.223529 0 0 0 1 0"/>
<feBlend mode="normal" in2="shape" result="effect2_innerShadow_1536_13041"/>
</filter>
<filter id="filter3_i_1536_13041" x="12.8237" y="2.5415" width="1.88818" height="1.81641" filterUnits="userSpaceOnUse" color-interpolation-filters="sRGB">
<feFlood flood-opacity="0" result="BackgroundImageFix"/>
<feBlend mode="normal" in="SourceGraphic" in2="BackgroundImageFix" result="shape"/>
<feColorMatrix in="SourceAlpha" type="matrix" values="0 0 0 0 0 0 0 0 0 0 0 0 0 0 0 0 0 0 127 0" result="hardAlpha"/>
<feOffset/>
<feGaussianBlur stdDeviation="0.125"/>
<feComposite in2="hardAlpha" operator="arithmetic" k2="-1" k3="1"/>
<feColorMatrix type="matrix" values="0 0 0 0 0.756863 0 0 0 0 0.619608 0 0 0 0 0.321569 0 0 0 1 0"/>
<feBlend mode="normal" in2="shape" result="effect1_innerShadow_1536_13041"/>
</filter>
<filter id="filter4_di_1536_13041" x="6.00928" y="8.76318" width="5.85059" height="5.85059" filterUnits="userSpaceOnUse" color-interpolation-filters="sRGB">
<feFlood flood-opacity="0" result="BackgroundImageFix"/>
<feColorMatrix in="SourceAlpha" type="matrix" values="0 0 0 0 0 0 0 0 0 0 0 0 0 0 0 0 0 0 127 0" result="hardAlpha"/>
<feOffset dx="-0.5" dy="0.5"/>
<feGaussianBlur stdDeviation="0.625"/>
<feComposite in2="hardAlpha" operator="out"/>
<feColorMatrix type="matrix" values="0 0 0 0 0.937255 0 0 0 0 0.443137 0 0 0 0 0.376471 0 0 0 1 0"/>
<feBlend mode="normal" in2="BackgroundImageFix" result="effect1_dropShadow_1536_13041"/>
<feBlend mode="normal" in="SourceGraphic" in2="effect1_dropShadow_1536_13041" result="shape"/>
<feColorMatrix in="SourceAlpha" type="matrix" values="0 0 0 0 0 0 0 0 0 0 0 0 0 0 0 0 0 0 127 0" result="hardAlpha"/>
<feOffset dx="0.75" dy="-0.75"/>
<feGaussianBlur stdDeviation="0.75"/>
<feComposite in2="hardAlpha" operator="arithmetic" k2="-1" k3="1"/>
<feColorMatrix type="matrix" values="0 0 0 0 0.313726 0 0 0 0 0.384314 0 0 0 0 1 0 0 0 1 0"/>
<feBlend mode="normal" in2="shape" result="effect2_innerShadow_1536_13041"/>
</filter>
<filter id="filter5_f_1536_13041" x="9.39297" y="2.15615" width="7.90254" height="4.96309" filterUnits="userSpaceOnUse" color-interpolation-filters="sRGB">
<feFlood flood-opacity="0" result="BackgroundImageFix"/>
<feBlend mode="normal" in="SourceGraphic" in2="BackgroundImageFix" result="shape"/>
<feGaussianBlur stdDeviation="0.075" result="effect1_foregroundBlur_1536_13041"/>
</filter>
<radialGradient id="paint0_radial_1536_13041" cx="0" cy="0" r="1" gradientUnits="userSpaceOnUse" gradientTransform="translate(2.19826 11.8134) rotate(-103.54) scale(1.18923 1.46408)">
<stop stop-color="#395DE0"/>
<stop offset="1" stop-color="#2C68A3"/>
</radialGradient>
<radialGradient id="paint1_radial_1536_13041" cx="0" cy="0" r="1" gradientUnits="userSpaceOnUse" gradientTransform="translate(17.2788 10.2757) rotate(108.743) scale(2.03019)">
<stop offset="0.248616" stop-color="#3DB3F3"/>
<stop offset="1" stop-color="#5B73F4"/>
</radialGradient>
<radialGradient id="paint2_radial_1536_13041" cx="0" cy="0" r="1" gradientUnits="userSpaceOnUse" gradientTransform="translate(17.6182 10.7318) rotate(161.162) scale(0.952632 0.603986)">
<stop offset="0.257996" stop-color="#5FBEFF"/>
<stop offset="1" stop-color="#5FBEFF" stop-opacity="0"/>
</radialGradient>
<radialGradient id="paint3_radial_1536_13041" cx="0" cy="0" r="1" gradientUnits="userSpaceOnUse" gradientTransform="translate(4.42295 5.23718) rotate(15.9454) scale(2.16218 5.39669)">
<stop stop-color="#FBC96E"/>
<stop offset="1" stop-color="#FAC567"/>
</radialGradient>
<radialGradient id="paint4_radial_1536_13041" cx="0" cy="0" r="1" gradientUnits="userSpaceOnUse" gradientTransform="translate(5.69576 5.70389) rotate(-156.753) scale(1.6393 4.93027)">
<stop offset="0.765376" stop-color="#D89F3A" stop-opacity="0"/>
<stop offset="0.91124" stop-color="#DAA139"/>
</radialGradient>
<radialGradient id="paint5_radial_1536_13041" cx="0" cy="0" r="1" gradientUnits="userSpaceOnUse" gradientTransform="translate(14.7545 6.55245) rotate(-125.455) scale(1.71887 1.76286)">
<stop offset="0.254227" stop-color="#BF812A"/>
<stop offset="1" stop-color="#CE9333"/>
</radialGradient>
<radialGradient id="paint6_radial_1536_13041" cx="0" cy="0" r="1" gradientUnits="userSpaceOnUse" gradientTransform="translate(13.4286 5.71455) rotate(-23.0913) scale(1.48749 3.87514)">
<stop offset="0.734364" stop-color="#E9BB61" stop-opacity="0"/>
<stop offset="0.929116" stop-color="#E9BB61"/>
</radialGradient>
<radialGradient id="paint7_radial_1536_13041" cx="0" cy="0" r="1" gradientUnits="userSpaceOnUse" gradientTransform="translate(14.309 6.13883) rotate(-142.922) scale(2.33993 3.94757)">
<stop offset="0.772711" stop-color="#C18739" stop-opacity="0"/>
<stop offset="0.948485" stop-color="#C18739"/>
</radialGradient>
<linearGradient id="paint8_linear_1536_13041" x1="14.3003" y1="10.0033" x2="2.30809" y2="12.8003" gradientUnits="userSpaceOnUse">
<stop stop-color="#FFBC5D"/>
<stop offset="0.303505" stop-color="#FCAD6A"/>
<stop offset="1" stop-color="#CB7547"/>
</linearGradient>
<radialGradient id="paint9_radial_1536_13041" cx="0" cy="0" r="1" gradientUnits="userSpaceOnUse" gradientTransform="translate(6.78328 17.66) rotate(-69.4212) scale(7.46913 14.5373)">
<stop stop-color="#F67B4E"/>
<stop offset="1" stop-color="#F67B4E" stop-opacity="0"/>
</radialGradient>
<linearGradient id="paint10_linear_1536_13041" x1="2.13223" y1="12.5139" x2="3.97786" y2="12.132" gradientUnits="userSpaceOnUse">
<stop stop-color="#C2794C"/>
<stop offset="1" stop-color="#E07648" stop-opacity="0"/>
</linearGradient>
<linearGradient id="paint11_linear_1536_13041" x1="16.6215" y1="13.7019" x2="13.4818" y2="12.9806" gradientUnits="userSpaceOnUse">
<stop offset="0.128534" stop-color="#FFBB5B"/>
<stop offset="1" stop-color="#FFBB5B" stop-opacity="0"/>
</linearGradient>
<linearGradient id="paint12_linear_1536_13041" x1="10.3845" y1="15.6323" x2="10.3845" y2="14.8262" gradientUnits="userSpaceOnUse">
<stop offset="0.184212" stop-color="#FF6F8C"/>
<stop offset="1" stop-color="#FF7A6A" stop-opacity="0"/>
</linearGradient>
<radialGradient id="paint13_radial_1536_13041" cx="0" cy="0" r="1" gradientUnits="userSpaceOnUse" gradientTransform="translate(17.5973 4.45252) rotate(113.385) scale(1.71033 1.41773)">
<stop offset="0.377231" stop-color="#DD9049"/>
<stop offset="1" stop-color="#F8BF60" stop-opacity="0"/>
</radialGradient>
<radialGradient id="paint14_radial_1536_13041" cx="0" cy="0" r="1" gradientUnits="userSpaceOnUse" gradientTransform="translate(1.29428 4.54797) rotate(64.2171) scale(1.39001 0.7603)">
<stop offset="0.195602" stop-color="#D7783D"/>
<stop offset="1" stop-color="#D7783D" stop-opacity="0"/>
</radialGradient>
<radialGradient id="paint15_radial_1536_13041" cx="0" cy="0" r="1" gradientUnits="userSpaceOnUse" gradientTransform="translate(9.40867 2.02881) rotate(76.0568) scale(0.792355 1.73516)">
<stop offset="0.382465" stop-color="#D48C33"/>
<stop offset="1" stop-color="#FEB16A" stop-opacity="0"/>
</radialGradient>
<radialGradient id="paint16_radial_1536_13041" cx="0" cy="0" r="1" gradientUnits="userSpaceOnUse" gradientTransform="translate(13.5026 11.6865) rotate(-51.5819) scale(1.57041 1.01332)">
<stop stop-color="#FF196C"/>
<stop offset="1" stop-color="#FF1F4A"/>
</radialGradient>
<radialGradient id="paint17_radial_1536_13041" cx="0" cy="0" r="1" gradientUnits="userSpaceOnUse" gradientTransform="translate(14.5845 10.8591) rotate(149.744) scale(1.17887 0.746709)">
<stop offset="0.222789" stop-color="#FF5873"/>
<stop offset="1" stop-color="#FF5873" stop-opacity="0"/>
</radialGradient>
<radialGradient id="paint18_radial_1536_13041" cx="0" cy="0" r="1" gradientUnits="userSpaceOnUse" gradientTransform="translate(5.20834 11.7289) rotate(-104.281) scale(1.20398 1.15277)">
<stop stop-color="#F6196C"/>
<stop offset="1" stop-color="#E42047"/>
</radialGradient>
<radialGradient id="paint19_radial_1536_13041" cx="0" cy="0" r="1" gradientUnits="userSpaceOnUse" gradientTransform="translate(5.70688 10.997) rotate(155.726) scale(0.593427 0.519792)">
<stop stop-color="#FE536F"/>
<stop offset="1" stop-color="#FE536F" stop-opacity="0"/>
</radialGradient>
<radialGradient id="paint20_radial_1536_13041" cx="0" cy="0" r="1" gradientUnits="userSpaceOnUse" gradientTransform="translate(1.70774 3.48256) rotate(135.198) scale(2.01814 2.0996)">
<stop offset="0.172433" stop-color="#E7C04E"/>
<stop offset="1" stop-color="#D9972A"/>
</radialGradient>
<radialGradient id="paint21_radial_1536_13041" cx="0" cy="0" r="1" gradientUnits="userSpaceOnUse" gradientTransform="translate(0.73189 5.19489) rotate(-71.3305) scale(1.12662 1.22038)">
<stop offset="0.0645976" stop-color="#DF8089"/>
<stop offset="1" stop-color="#DF8089" stop-opacity="0"/>
</radialGradient>
<radialGradient id="paint22_radial_1536_13041" cx="0" cy="0" r="1" gradientUnits="userSpaceOnUse" gradientTransform="translate(1.78199 3.52669) rotate(141.017) scale(0.955185 0.493613)">
<stop stop-color="#FFDE71"/>
<stop offset="1" stop-color="#FFDE71" stop-opacity="0"/>
</radialGradient>
<radialGradient id="paint23_radial_1536_13041" cx="0" cy="0" r="1" gradientUnits="userSpaceOnUse" gradientTransform="translate(1.27285 4.18816) rotate(180) scale(1.27285 1.32289)">
<stop offset="0.487603" stop-color="#E1AD3D" stop-opacity="0"/>
<stop offset="1" stop-color="#B9894B"/>
</radialGradient>
<radialGradient id="paint24_radial_1536_13041" cx="0" cy="0" r="1" gradientUnits="userSpaceOnUse" gradientTransform="translate(5.8127 2.82924) rotate(136.302) scale(1.9806 2.05846)">
<stop offset="0.172433" stop-color="#E7C04E"/>
<stop offset="1" stop-color="#D9972A"/>
</radialGradient>
<radialGradient id="paint25_radial_1536_13041" cx="0" cy="0" r="1" gradientUnits="userSpaceOnUse" gradientTransform="translate(5.88697 2.87166) rotate(142.093) scale(0.941051 0.482073)">
<stop stop-color="#FFDE71"/>
<stop offset="1" stop-color="#FFDE71" stop-opacity="0"/>
</radialGradient>
<radialGradient id="paint26_radial_1536_13041" cx="0" cy="0" r="1" gradientUnits="userSpaceOnUse" gradientTransform="translate(5.04901 4.47328) rotate(-76.7989) scale(0.882493 1.17699)">
<stop stop-color="#E4A122"/>
<stop offset="1" stop-color="#E4A122" stop-opacity="0"/>
</radialGradient>
<radialGradient id="paint27_radial_1536_13041" cx="0" cy="0" r="1" gradientUnits="userSpaceOnUse" gradientTransform="translate(5.37783 3.50809) rotate(180) scale(1.27285)">
<stop offset="0.487603" stop-color="#E1AD3D" stop-opacity="0"/>
<stop offset="1" stop-color="#B9894B"/>
</radialGradient>
<radialGradient id="paint28_radial_1536_13041" cx="0" cy="0" r="1" gradientUnits="userSpaceOnUse" gradientTransform="translate(14.4785 3.13682) rotate(136.32) scale(1.628 1.69201)">
<stop offset="0.172433" stop-color="#F0C950"/>
<stop offset="1" stop-color="#C8861F"/>
</radialGradient>
<radialGradient id="paint29_radial_1536_13041" cx="0" cy="0" r="1" gradientUnits="userSpaceOnUse" gradientTransform="translate(14.6164 2.95652) rotate(147.14) scale(0.909179 0.465746)">
<stop offset="0.183948" stop-color="#FFDE71"/>
<stop offset="1" stop-color="#FFDE71" stop-opacity="0"/>
</radialGradient>
<radialGradient id="paint30_radial_1536_13041" cx="0" cy="0" r="1" gradientUnits="userSpaceOnUse" gradientTransform="translate(10.1725 10.6683) rotate(138.155) scale(1.90797)">
<stop stop-color="#5FBFFF"/>
<stop offset="1" stop-color="#3E94FF"/>
</radialGradient>
<linearGradient id="paint31_linear_1536_13041" x1="9.55176" y1="2.24611" x2="13.8583" y2="7.67692" gradientUnits="userSpaceOnUse">
<stop stop-color="#FFD678"/>
<stop offset="1" stop-color="#FFD678" stop-opacity="0"/>
</linearGradient>
<radialGradient id="paint32_radial_1536_13041" cx="0" cy="0" r="1" gradientUnits="userSpaceOnUse" gradientTransform="translate(13.8583 7.14653) rotate(-34.6679) scale(4.41067 1.18135)">
<stop offset="0.289296" stop-color="#FFD175"/>
<stop offset="1" stop-color="#FFD175" stop-opacity="0"/>
</radialGradient>
<radialGradient id="paint33_radial_1536_13041" cx="0" cy="0" r="1" gradientUnits="userSpaceOnUse" gradientTransform="translate(10.3841 0.548913) rotate(125.606) scale(2.332 1.97992)">
<stop offset="0.376296" stop-color="#F3D154"/>
<stop offset="1" stop-color="#CC9848"/>
</radialGradient>
<radialGradient id="paint34_radial_1536_13041" cx="0" cy="0" r="1" gradientUnits="userSpaceOnUse" gradientTransform="translate(9.17483 2.44492) rotate(-79.3128) scale(1.24404 1.47882)">
<stop stop-color="#E78F5E"/>
<stop offset="1" stop-color="#E78F5E" stop-opacity="0"/>
</radialGradient>
<radialGradient id="paint35_radial_1536_13041" cx="0" cy="0" r="1" gradientUnits="userSpaceOnUse" gradientTransform="translate(9.91735 1.63083) rotate(-146.725) scale(2.43593 2.91349)">
<stop offset="0.557117" stop-color="#E9C251" stop-opacity="0"/>
<stop offset="1" stop-color="#B49858"/>
</radialGradient>
<radialGradient id="paint36_radial_1536_13041" cx="0" cy="0" r="1" gradientUnits="userSpaceOnUse" gradientTransform="translate(10.8083 0.676197) rotate(156.06) scale(1.34623 1.03598)">
<stop stop-color="#FFED77"/>
<stop offset="1" stop-color="#FFED77" stop-opacity="0"/>
</radialGradient>
<radialGradient id="paint37_radial_1536_13041" cx="0" cy="0" r="1" gradientUnits="userSpaceOnUse" gradientTransform="translate(18.679 3.48256) rotate(135.198) scale(2.01814 2.0996)">
<stop offset="0.172433" stop-color="#F8CB54"/>
<stop offset="1" stop-color="#EAA34B"/>
</radialGradient>
<radialGradient id="paint38_radial_1536_13041" cx="0" cy="0" r="1" gradientUnits="userSpaceOnUse" gradientTransform="translate(17.7031 5.19489) rotate(-71.3305) scale(1.12662 1.52284)">
<stop offset="0.159577" stop-color="#F1907C"/>
<stop offset="1" stop-color="#F1907C" stop-opacity="0"/>
</radialGradient>
<radialGradient id="paint39_radial_1536_13041" cx="0" cy="0" r="1" gradientUnits="userSpaceOnUse" gradientTransform="translate(18.7532 3.52669) rotate(141.017) scale(0.955185 0.493613)">
<stop stop-color="#FFDE71"/>
<stop offset="1" stop-color="#FFDE71" stop-opacity="0"/>
</radialGradient>
<radialGradient id="paint40_radial_1536_13041" cx="0" cy="0" r="1" gradientUnits="userSpaceOnUse" gradientTransform="translate(18.244 4.18816) rotate(180) scale(1.27285 1.32289)">
<stop offset="0.487603" stop-color="#E0A444" stop-opacity="0"/>
<stop offset="1" stop-color="#C6924D"/>
</radialGradient>
</defs>
</svg>
