<svg width="16" height="14" viewBox="0 0 16 14" fill="none" xmlns="http://www.w3.org/2000/svg">
<g id="ebooks">
<path id="Vector" d="M7.62012 13.9964C11.7752 13.9964 15.1436 10.868 15.1436 7.00895C15.1436 3.14988 11.7752 0.0214844 7.62012 0.0214844C3.46508 0.0214844 0.0966892 3.14988 0.0966892 7.00895C0.0966892 10.868 3.46508 13.9964 7.62012 13.9964ZM7.62012 12.5989C4.29604 12.5989 1.60138 10.0962 1.60138 7.00895C1.60138 3.92169 4.29604 1.41898 7.62012 1.41898C10.9442 1.41898 13.6389 3.92169 13.6389 7.00895C13.6389 10.0962 10.9442 12.5989 7.62012 12.5989ZM4.23458 3.86459L6.11543 8.40644L11.0057 10.1533L9.12481 5.61145L4.23458 3.86459ZM7.62012 7.70769C7.2046 7.70769 6.86778 7.39486 6.86778 7.00895C6.86778 6.62303 7.2046 6.3102 7.62012 6.3102C8.03564 6.3102 8.37247 6.62303 8.37247 7.00895C8.37247 7.39486 8.03564 7.70769 7.62012 7.70769Z" fill="#8F90A6"/>
</g>
</svg>
