<svg width="11" height="10" viewBox="0 0 11 10" fill="none" xmlns="http://www.w3.org/2000/svg">
<g id="Film icon" opacity="0.5">
<path id="Vector" d="M7.7732 2.8711C7.03301 2.87104 6.31041 3.10627 5.70193 3.54538C5.09345 3.98448 4.62804 4.60656 4.36787 5.32853L5.21954 5.6614C5.4445 5.03894 5.87188 4.51842 6.42727 4.19045C6.98265 3.86249 7.63085 3.74786 8.259 3.86654C8.88714 3.98522 9.45544 4.32967 9.86493 4.83993C10.2744 5.35019 10.4991 5.99393 10.5 6.65904C10.5 7.41251 10.2127 8.13512 9.70134 8.6679C9.18996 9.20069 8.49639 9.5 7.7732 9.5H3.22852C2.58465 9.50042 1.9614 9.26344 1.46914 8.83103C0.976876 8.39862 0.647362 7.79867 0.538942 7.13742C0.430522 6.47617 0.550191 5.79628 0.876759 5.21814C1.20333 4.63999 1.71573 4.2009 2.32322 3.9786C2.2843 3.1607 2.53737 2.35674 3.03365 1.72171C3.52994 1.08668 4.2343 0.665551 5.01093 0.539506C5.78757 0.41346 6.5815 0.591425 7.23967 1.03909C7.89783 1.48675 8.37363 2.17242 8.57533 2.96391C8.31207 2.90216 8.04305 2.87103 7.7732 2.8711Z" fill="#34DB8A"/>
</g>
</svg>
