<svg width="62" height="62" viewBox="0 0 62 62" fill="none" xmlns="http://www.w3.org/2000/svg">
<g id="Films (inactif)">
<path id="Vector" d="M19 21.2137C19.0022 20.8927 19.1283 20.5855 19.351 20.3584C19.5738 20.1313 19.8753 20.0026 20.1904 20H41.8096C42.4672 20 43 20.5439 43 21.2137V40.7863C42.9978 41.1073 42.8717 41.4145 42.649 41.6416C42.4263 41.8687 42.1247 41.9974 41.8096 42H20.1904C19.8746 41.9997 19.5718 41.8717 19.3486 41.6441C19.1254 41.4165 19 41.108 19 40.7863V21.2137ZM21.4 22.4444V39.5556H40.6V22.4444H21.4ZM29.3464 26.6183L35.2012 30.593C35.267 30.6376 35.321 30.6981 35.3584 30.7691C35.3957 30.8401 35.4153 30.9194 35.4153 31C35.4153 31.0806 35.3957 31.1599 35.3584 31.2309C35.321 31.3019 35.267 31.3624 35.2012 31.407L29.3452 35.3817C29.273 35.4304 29.1892 35.4584 29.1026 35.4625C29.0161 35.4667 28.9301 35.4469 28.8537 35.4053C28.7773 35.3637 28.7134 35.3018 28.6687 35.2262C28.624 35.1506 28.6003 35.0641 28.6 34.9759V27.0241C28.6002 26.9357 28.6239 26.849 28.6686 26.7732C28.7133 26.6974 28.7774 26.6354 28.854 26.5937C28.9306 26.5521 29.0168 26.5324 29.1035 26.5367C29.1902 26.541 29.2742 26.5693 29.3464 26.6183Z" fill="#1B3B36"/>
</g>
</svg>
