<svg width="25" height="18" viewBox="0 0 25 18" fill="none" xmlns="http://www.w3.org/2000/svg">
<path id="XMLID_2599_" d="M24.0205 6.8688C23.4795 2.9277 20.233 0 16.4054 0H8.59464C4.76696 0 1.52143 2.9277 0.979464 6.8688C0.917857 7.3179 0 13.8384 0 14.292C0 16.3395 1.59643 18 3.56518 18C4.91607 18 6.15 17.2062 6.75446 15.9498L8.92857 11.7H16.0714L18.2455 15.9498C18.8491 17.2062 20.0839 18 21.4348 18C23.4036 18 25 16.3395 25 14.292C25 13.8384 24.0821 7.3179 24.0205 6.8688ZM17.8571 2.7C18.5143 2.7 19.0473 3.2373 19.0473 3.8997C19.0473 4.5621 18.5143 5.0994 17.8571 5.0994C17.2 5.0994 16.667 4.5621 16.667 3.8997C16.667 3.2373 17.2 2.7 17.8571 2.7ZM9.82143 7.2H8.03571V9H6.25V7.2H4.46429V5.4H6.25V3.6H8.03571V5.4H9.82143V7.2ZM15.4759 7.4997C14.8188 7.4997 14.2857 6.9624 14.2857 6.3C14.2857 5.6376 14.8188 5.1003 15.4759 5.1003C16.133 5.1003 16.6661 5.6376 16.6661 6.3C16.667 6.9624 16.1339 7.4997 15.4759 7.4997ZM17.8571 9.9C17.2 9.9 16.667 9.3627 16.667 8.7003C16.667 8.0379 17.2 7.5006 17.8571 7.5006C18.5143 7.5006 19.0473 8.0379 19.0473 8.7003C19.0473 9.3627 18.5143 9.9 17.8571 9.9ZM20.2384 7.4997C19.5812 7.4997 19.0482 6.9624 19.0482 6.3C19.0482 5.6376 19.5812 5.1003 20.2384 5.1003C20.8955 5.1003 21.4286 5.6376 21.4286 6.3C21.4286 6.9624 20.8955 7.4997 20.2384 7.4997Z" fill="#00D5A2"/>
</svg>
