<svg width="16" height="21" viewBox="0 0 16 21" fill="none" xmlns="http://www.w3.org/2000/svg">
<g id="games">
<g id="#000000ff">
<g id="#000000ff_2">
<path id="Vector" d="M15.0469 0H9.53674e-06C9.53674e-06 1.23308 9.53674e-06 2.46616 9.53674e-06 3.69924C0.312896 3.69924 0.625782 3.69966 0.938226 3.69883C1.19712 4.32935 1.47682 4.95411 1.71934 5.58956C1.73527 6.79551 1.72111 8.00229 1.72597 9.20865C1.71624 9.53337 1.74589 9.86054 1.71225 10.184C1.46221 10.8059 1.19579 11.4229 0.939111 12.0431C0.626225 12.0431 0.313338 12.0427 9.53674e-06 12.0431C9.53674e-06 13.2762 9.53674e-06 14.5093 9.53674e-06 15.7423C0.619586 15.7423 1.23916 15.7419 1.85874 15.7423C1.85874 17.5098 1.85874 19.2772 1.85874 21.0446H13.1881C13.1881 19.2772 13.1881 17.5098 13.1881 15.7423C13.8077 15.7419 14.4273 15.7428 15.0469 15.7423C15.0469 14.5093 15.0469 13.2762 15.0469 12.0431C14.734 12.0431 14.4211 12.0427 14.1087 12.0435C13.8807 11.5042 13.6573 10.9629 13.4302 10.4232C13.3842 10.3094 13.3191 10.1968 13.3205 10.0718C13.3214 8.60485 13.3214 7.1379 13.3205 5.67094C13.3187 5.54599 13.3838 5.43378 13.4298 5.32034C13.6568 4.78025 13.8807 4.23892 14.1082 3.69883C14.4211 3.69924 14.734 3.69924 15.0469 3.69924C15.0469 2.46616 15.0469 1.23308 15.0469 0ZM13.7192 1.23308C13.7192 1.64411 13.7192 2.05514 13.7192 2.46616C9.58885 2.46616 5.45804 2.46616 1.32767 2.46616C1.32767 2.05514 1.32767 1.64411 1.32767 1.23308C5.45804 1.23308 9.58885 1.23308 13.7192 1.23308ZM12.6832 3.69924C12.4632 4.22577 12.2442 4.75271 12.0229 5.27841C11.976 5.39021 11.9963 5.51229 11.9932 5.62943C11.9932 7.19257 11.9932 8.75611 11.9932 10.3197C11.991 10.4204 12.0446 10.5104 12.0809 10.602C12.2822 11.0821 12.4827 11.5626 12.6827 12.0431C12.0105 12.0431 11.3383 12.0431 10.6656 12.0431C10.6656 11.6732 10.6656 11.3032 10.6656 10.9333C10.223 10.9333 9.78047 10.9333 9.33792 10.9333C9.33792 11.3032 9.33792 11.6732 9.33792 12.0431C8.12841 12.0431 6.91847 12.0431 5.70897 12.0431C5.70897 11.6732 5.70941 11.3032 5.70897 10.9333C5.26641 10.9333 4.82386 10.9333 4.3813 10.9333C4.38086 11.3032 4.38175 11.6732 4.3813 12.0431C3.70862 12.0431 3.03638 12.0431 2.3637 12.0431C2.5593 11.5741 2.75536 11.1055 2.95096 10.6366C2.9992 10.519 3.0678 10.4027 3.05497 10.2728C3.047 8.62993 3.06514 6.98582 3.04567 5.34335C2.82749 4.79258 2.58896 4.24797 2.3637 3.69924C5.80367 3.69924 9.24321 3.69924 12.6832 3.69924ZM13.7192 13.2762C13.7192 13.6872 13.7192 14.0982 13.7192 14.5093C9.58885 14.5093 5.45804 14.5093 1.32767 14.5093C1.32767 14.0982 1.32767 13.6872 1.32767 13.2762C5.45804 13.2762 9.58885 13.2762 13.7192 13.2762ZM11.8605 15.7423C11.8605 17.0987 11.8605 18.4551 11.8605 19.8115C8.96927 19.8115 6.07762 19.8115 3.1864 19.8115C3.1864 18.4551 3.1864 17.0987 3.1864 15.7423C6.07762 15.7423 8.96927 15.7423 11.8605 15.7423Z" fill="#8F90A6"/>
<path id="Vector_2" d="M10.665 4.93164C8.57043 4.93164 6.47581 4.93164 4.38076 4.93164C4.38076 6.52108 4.38076 8.11011 4.38076 9.69956C6.47537 9.69956 8.57043 9.69956 10.665 9.69956C10.665 8.11011 10.665 6.52108 10.665 4.93164ZM9.33737 6.16472C9.33737 6.93211 9.33737 7.69909 9.33737 8.46647C8.12787 8.46647 6.91793 8.46647 5.70842 8.46647C5.70842 7.69909 5.70842 6.93211 5.70842 6.16472C6.91793 6.16472 8.12787 6.16472 9.33737 6.16472Z" fill="#8F90A6"/>
<path id="Vector_3" d="M8.1875 16.9746C7.74495 16.9746 7.30239 16.9746 6.85984 16.9746C6.85984 17.3856 6.85984 17.7967 6.85984 18.2077C7.30239 18.2077 7.74495 18.2077 8.1875 18.2077C8.1875 17.7967 8.1875 17.3856 8.1875 16.9746Z" fill="#8F90A6"/>
</g>
</g>
</g>
</svg>
