<svg width="44" height="44" viewBox="0 0 44 44" fill="none" xmlns="http://www.w3.org/2000/svg">
<g id="Avatar">
<path id="Ellipse 107" d="M44 22C44 34.1503 34.1503 44 22 44C9.84973 44 0 34.1503 0 22C0 9.84973 9.84973 0 22 0C34.1503 0 44 9.84973 44 22Z" fill="#34DB8A"/>
<g id="Group">
<path id="Vector" d="M13.5895 15.151C17.7476 15.151 21.1305 18.5339 21.1305 22.692V24.1866H22.915V22.692C22.915 18.5339 26.2979 15.151 30.4561 15.151H31.8776C31.4893 13.0543 30.4463 11.1847 28.9692 9.7627L22.0228 16.7091L15.0764 9.7627C13.5992 11.1847 12.5563 13.0543 12.168 15.151H13.5895Z" fill="#186841"/>
<path id="Vector_2" d="M22.0229 14.1214L27.5321 8.61216C26.1902 7.72566 24.6237 7.15327 22.9378 7V10.8612H21.1081V7C19.4221 7.15327 17.8557 7.72566 16.5137 8.61216L22.0229 14.1214Z" fill="#186841"/>
<path id="Vector_3" d="M30.456 16.9805C27.3068 16.9805 24.7447 19.5426 24.7447 22.6917V24.1864H25.637V26.0161H18.4084V24.1864H19.3007V22.6917C19.3007 19.5426 16.7387 16.9805 13.5895 16.9805H12V21.765C12 28.492 15.6734 34.6634 21.5866 37.8708L22.0228 38.1074L22.4589 37.8708C28.3721 34.6634 32.0455 28.492 32.0455 21.765V16.9805H30.456ZM27.2272 19.9697H30.2391V21.7994H27.2272V19.9697ZM18.1969 30.8415C18.213 30.8149 18.5998 30.1837 19.2179 29.5554C20.1274 28.6308 21.0711 28.162 22.0227 28.162C22.9743 28.162 23.918 28.6308 24.8275 29.5554C25.4456 30.1837 25.8324 30.8149 25.8485 30.8414L26.1379 31.3169L25.8485 31.7925C25.8323 31.819 25.4456 32.4503 24.8275 33.0785C23.918 34.0031 22.9743 34.4719 22.0227 34.4719C21.071 34.4719 20.1274 34.0031 19.2179 33.0785C18.5998 32.4502 18.213 31.819 18.1969 31.7925L17.9075 31.3169L18.1969 30.8415ZM13.8064 19.9697H16.8182V21.7994H13.8064V19.9697Z" fill="#186841"/>
<path id="Vector_4" d="M22.0229 32.6422C22.7038 32.6422 23.4691 31.9189 23.9471 31.3187C23.4913 30.7456 22.7318 29.9917 22.0229 29.9917C21.342 29.9917 20.5767 30.7151 20.0986 31.3152C20.5539 31.8877 21.3137 32.6422 22.0229 32.6422Z" fill="#186841"/>
</g>
</g>
</svg>
