<svg width="28" height="28" viewBox="0 0 28 28" fill="none" xmlns="http://www.w3.org/2000/svg">
<g id="home-6-line 1" clip-path="url(#clip0_7294_1054)">
<g id="Group">
<path id="Vector" d="M24.5 23.3332C24.5 23.6426 24.3771 23.9393 24.1583 24.1581C23.9395 24.3769 23.6428 24.4998 23.3333 24.4998H4.66667C4.35725 24.4998 4.0605 24.3769 3.84171 24.1581C3.62292 23.9393 3.5 23.6426 3.5 23.3332V11.0715C3.49988 10.8937 3.54039 10.7182 3.61844 10.5585C3.69648 10.3988 3.81001 10.259 3.95033 10.1498L13.2837 2.89083C13.4885 2.73152 13.7405 2.64502 14 2.64502C14.2595 2.64502 14.5115 2.73152 14.7163 2.89083L24.0497 10.1498C24.19 10.259 24.3035 10.3988 24.3816 10.5585C24.4596 10.7182 24.5001 10.8937 24.5 11.0715V23.3332ZM22.1667 22.1665V11.6408L14 5.2895L5.83333 11.6408V22.1665H22.1667ZM8.16667 17.4998H19.8333V19.8332H8.16667V17.4998Z" fill="#1B3B36"/>
</g>
</g>
<defs>
<clipPath id="clip0_7294_1054">
<rect width="28" height="28" fill="white"/>
</clipPath>
</defs>
</svg>
