<svg width="25" height="42" viewBox="0 0 25 42" fill="none" xmlns="http://www.w3.org/2000/svg">
<g id="Notification">
<g id="Group 25">
<path id="Vector" d="M5.38859 21.5909C5.79016 21.8815 6.29062 22.0009 6.77988 21.9226C7.26914 21.8444 7.70713 21.5751 7.99748 21.1738L4.96924 18.9824C4.67889 19.3836 4.55995 19.8839 4.6386 20.3731C4.71724 20.8623 4.98702 21.3003 5.38859 21.5909Z" fill="#FEFEFE"/>
<path id="Vector_2" d="M14.6724 22.9878C14.8297 22.891 14.9548 22.7497 15.0318 22.5818C15.1087 22.4139 15.1341 22.2269 15.1047 22.0444L14.7468 19.818L17.8045 15.5928C18.7236 14.3195 19.1532 12.7576 19.0147 11.1929C18.8761 9.62808 18.1787 8.165 17.05 7.0713L17.6412 6.25439C17.7864 6.05378 17.8459 5.80366 17.8065 5.55907C17.7672 5.31447 17.6323 5.09543 17.4315 4.95013C17.2308 4.80483 16.9805 4.74517 16.7359 4.78428C16.4913 4.82339 16.2723 4.95806 16.1271 5.15867L15.5359 5.97559C14.1442 5.24536 12.5364 5.04027 11.0068 5.39783C9.4771 5.75539 8.12778 6.65169 7.20567 7.92277L4.14799 12.148L1.92131 12.504C1.73891 12.5332 1.56931 12.6158 1.43395 12.7414C1.29858 12.867 1.20353 13.0299 1.16081 13.2095C1.11809 13.3892 1.12962 13.5775 1.19394 13.7507C1.25826 13.9239 1.37248 14.0742 1.52217 14.1825L13.6351 22.9483C13.7848 23.0566 13.9632 23.1182 14.1479 23.1253C14.3325 23.1323 14.515 23.0845 14.6724 22.9878ZM4.44447 13.9923L4.82668 13.9312C5.07129 13.8921 5.29029 13.7575 5.43549 13.5569L8.71979 9.01848C9.44567 8.01543 10.5406 7.34206 11.7638 7.14651C12.9869 6.95095 14.2381 7.24924 15.242 7.97574C16.2459 8.70225 16.9204 9.79746 17.117 11.0204C17.3136 12.2434 17.0163 13.494 16.2904 14.497L13.0061 19.0355C12.861 19.2361 12.8015 19.4862 12.8409 19.7308L12.9023 20.1129L4.44447 13.9923Z" fill="#FEFEFE"/>
</g>
<g id="Notification number">
<g id="Ellipse 110">
<mask id="path-3-inside-1_7357_6379" fill="white">
<ellipse cx="10.8688" cy="31.8598" rx="9.8683" ry="9.85976"/>
</mask>
<ellipse cx="10.8688" cy="31.8598" rx="9.8683" ry="9.85976" fill="#FF6500"/>
<path d="M2.73709 31.8598C2.73709 27.3493 6.39246 23.7195 10.8688 23.7195V59.7195C26.2453 59.7195 38.7371 47.261 38.7371 31.8598H2.73709ZM10.8688 23.7195C15.3451 23.7195 19.0005 27.3493 19.0005 31.8598H-16.9995C-16.9995 47.261 -4.50776 59.7195 10.8688 59.7195V23.7195ZM19.0005 31.8598C19.0005 36.3702 15.3451 40 10.8688 40V4C-4.50776 4 -16.9995 16.4586 -16.9995 31.8598H19.0005ZM10.8688 40C6.39246 40 2.73709 36.3702 2.73709 31.8598H38.7371C38.7371 16.4586 26.2453 4 10.8688 4V40Z" fill="#186841" mask="url(#path-3-inside-1_7357_6379)"/>
</g>
<path id="5" d="M10.2482 30.5915C10.461 30.5775 10.9433 30.5775 11.1418 30.5775C13.4823 30.5775 15 31.8028 15 33.5634C15 35.6479 13.3972 37 10.9433 37C9.60993 37 8.07801 36.507 7 35.7606L8.03546 33.7606C8.8156 34.5775 9.7234 35 10.6312 35C11.6383 35 12.2057 34.5493 12.2057 33.7465C12.2057 33 11.6383 32.5775 10.6454 32.5775C10.1206 32.5775 8.48936 32.5915 7.86525 32.6338V27H14.5461V29.0845H10.2482V30.5915Z" fill="white"/>
</g>
</g>
</svg>
