<svg width="18" height="18" viewBox="0 0 18 18" fill="none" xmlns="http://www.w3.org/2000/svg">
<g id="PG">
<path id="Ellipse 108" d="M18 9C18 13.9706 13.9706 18 9 18C4.02944 18 0 13.9706 0 9C0 4.02944 4.02944 0 9 0C13.9706 0 18 4.02944 18 9Z" fill="#FFD600"/>
<g id="PG_2">
<path d="M5.81287 6.0585C7.36893 6.0585 8.26666 6.81894 8.26666 8.15599C8.26666 9.5766 7.36893 10.3955 5.81287 10.3955H4.98355V11.9164H3V6.0585H5.81287ZM5.71028 8.92479C6.13777 8.92479 6.38571 8.66574 6.38571 8.21448C6.38571 7.77994 6.13777 7.52925 5.71028 7.52925H4.98355V8.92479H5.71028Z" fill="#186841"/>
<path d="M13.2045 10.195V8.83287H14.906V11.2479C14.2391 11.6825 13.1362 12 12.2812 12C10.4002 12 9.03226 10.7298 9.03226 8.99164C9.03226 7.26184 10.4515 6 12.4094 6C13.3413 6 14.3588 6.35097 15 6.90251L13.88 8.2312C13.4781 7.85515 12.8968 7.61281 12.4009 7.61281C11.6314 7.61281 11.0671 8.19777 11.0671 8.99164C11.0671 9.80223 11.6399 10.3872 12.418 10.3872C12.6232 10.3872 12.9139 10.312 13.2045 10.195Z" fill="#186841"/>
</g>
</g>
</svg>
