<svg width="20" height="15" viewBox="0 0 20 15" fill="none" xmlns="http://www.w3.org/2000/svg">
<g id="profile">
<g id="#000000ff">
<path id="Vector" d="M2.61168 0.240911C2.72343 0.0856467 2.92427 -0.00715103 3.1255 0.00043166C8.55829 0.00115382 13.9911 -0.000651565 19.4239 0.00115384C19.7138 -0.00245697 19.9654 0.21708 20.0057 0.478141V0.609936C19.9623 0.870636 19.7099 1.08765 19.42 1.08295C16.895 1.08476 14.3701 1.08295 11.8448 1.08367C11.844 1.49603 11.8444 1.90838 11.8448 2.32074C12.0851 2.32399 12.3254 2.31568 12.5657 2.32399C12.8533 2.34168 13.0955 2.5818 13.0986 2.84755C13.1025 3.4455 13.0983 4.04345 13.1006 4.6414C13.5914 4.64393 14.0821 4.63707 14.5729 4.64537C15.7455 4.67426 16.9021 5.05989 17.8265 5.72681C18.8303 6.44247 19.5606 7.48022 19.8517 8.62123C19.9486 8.9917 19.9959 9.37264 20.0057 9.75358V9.97384C19.9635 10.5555 19.7404 11.1275 19.3469 11.5857C18.7592 12.2905 17.8008 12.7097 16.8384 12.6866C16.2202 12.6863 15.6021 12.6859 14.9839 12.6866C14.9832 13.099 14.9828 13.5113 14.9843 13.9237C15.9553 13.923 16.9263 13.9248 17.8973 13.923C18.3056 13.9259 18.71 13.7731 18.9991 13.5067C19.1808 13.3373 19.4825 13.2929 19.7072 13.4146C19.8775 13.4969 19.9791 13.6644 20.0057 13.8367V13.9176C19.9916 14.1674 19.774 14.335 19.5774 14.4769C19.0914 14.8304 18.4717 15.0167 17.8539 15.0069C14.195 15.0066 10.5358 15.0073 6.87656 15.0066C6.6179 15.0134 6.36939 14.8452 6.30179 14.6141C6.217 14.3678 6.36235 14.0819 6.61516 13.9764C6.75739 13.91 6.92072 13.9244 7.07467 13.9233C8.0644 13.9237 9.05452 13.9241 10.0443 13.9233C10.0435 13.4987 10.0474 13.0744 10.0423 12.6498C8.98497 12.5205 7.99055 12.0136 7.30481 11.2593C6.69409 10.5963 6.32914 9.74419 6.28421 8.87399C6.27209 8.59812 6.27991 8.3219 6.27796 8.04603C4.79667 8.04386 3.31539 8.04711 1.83411 8.04459C1.2609 8.04459 0.698245 7.77991 0.360649 7.35167C0.151606 7.09675 0.0386829 6.7855 0 6.46955V3.37617C0.0421995 3.11439 0.295787 2.8963 0.586495 2.90171C1.01513 2.90099 1.44377 2.89955 1.87241 2.90244C2.35575 2.90749 2.83284 3.09814 3.16613 3.42167C3.50686 3.74375 3.68972 4.19294 3.68542 4.6414C5.59573 4.64176 7.50604 4.6414 9.41635 4.64176C9.41752 4.11531 9.41674 3.58921 9.41635 3.06312C9.4183 2.92194 9.40072 2.77245 9.46949 2.64101C9.55936 2.45145 9.7766 2.32182 10.0001 2.32146C10.224 2.31893 10.4479 2.32254 10.6718 2.32037C10.6726 1.90838 10.6726 1.49603 10.6718 1.08403C8.15661 1.08331 5.64145 1.08367 3.12667 1.08367C2.902 1.09126 2.67732 0.974627 2.5769 0.787587C2.47805 0.617518 2.49368 0.399787 2.61168 0.240911ZM10.5905 3.40326C10.587 3.81597 10.5893 4.22905 10.5893 4.64176C11.0356 4.6414 11.4814 4.64176 11.9276 4.6414C11.9288 4.22977 11.9268 3.81814 11.9284 3.40651C11.4826 3.40073 11.0367 3.40651 10.5905 3.40326ZM1.17221 3.9846C1.1726 4.77175 1.17143 5.55891 1.1726 6.34606C1.16517 6.6732 1.48167 6.96712 1.83568 6.96134C3.51662 6.96351 5.19718 6.96026 6.87813 6.96315C7.17157 6.96423 7.43453 7.19785 7.44782 7.46902C7.45407 7.88932 7.44626 8.30962 7.45133 8.72992C7.46384 9.38239 7.72329 10.0276 8.17302 10.5303C8.66496 11.0863 9.3847 11.4655 10.1541 11.5695C10.4397 11.6124 10.7296 11.602 11.0176 11.603C12.9588 11.6034 14.8999 11.603 16.8411 11.6034C17.097 11.6066 17.3549 11.5713 17.5941 11.4853C18.1344 11.2979 18.565 10.8729 18.742 10.3667C17.4835 10.3642 16.2249 10.3678 14.966 10.3645C13.9934 10.3551 13.0478 9.88574 12.4926 9.14913C12.1343 8.68153 11.9339 8.11211 11.9288 7.53907C11.9264 6.93426 11.9292 6.32981 11.9272 5.72537C8.99318 5.72428 6.05875 5.725 3.12432 5.72464C2.8301 5.73945 2.55033 5.5246 2.51634 5.25343C2.50071 5.01656 2.52064 4.77897 2.50657 4.5421C2.48313 4.2453 2.19555 3.99254 1.87358 3.98604C1.63992 3.98171 1.40626 3.98532 1.17221 3.9846ZM13.099 5.72753C13.1033 6.34281 13.0951 6.95846 13.1033 7.57374C13.1221 8.28218 13.6531 8.94548 14.3767 9.17657C14.6147 9.25854 14.8698 9.28598 15.1223 9.28273C16.3464 9.28237 17.5702 9.28309 18.7944 9.28237C18.6533 8.28037 18.0903 7.33795 17.2522 6.68981C16.4789 6.08139 15.472 5.73367 14.4561 5.72573C14.004 5.725 13.5515 5.72175 13.099 5.72753ZM11.2169 12.6866C11.2165 13.099 11.2165 13.5113 11.2172 13.9237C12.0808 13.9244 12.9447 13.9223 13.8086 13.9248C13.8145 13.5121 13.8102 13.0994 13.811 12.6866C12.9463 12.6859 12.0816 12.6863 11.2169 12.6866Z" fill="white"/>
</g>
</g>
</svg>
