<svg width="11" height="11" viewBox="0 0 11 11" fill="none" xmlns="http://www.w3.org/2000/svg">
<path id="Vector" d="M5.76989 8.99053C5.60528 8.88482 5.39414 8.88482 5.22953 8.99053L3.12849 10.3398C2.75194 10.5816 2.2717 10.2449 2.3707 9.80846L2.9597 7.21184C2.99974 7.03529 2.94123 6.85088 2.80671 6.72972L0.858042 4.97459C0.532725 4.68158 0.71442 4.14159 1.15069 4.10483L3.66114 3.89336C3.85039 3.87741 4.01427 3.75563 4.08412 3.57902L5.03476 1.17553C5.20146 0.754066 5.79796 0.754066 5.96466 1.17553L6.9153 3.57902C6.98515 3.75563 7.14904 3.87741 7.33829 3.89335L9.84914 4.10483C10.2854 4.14158 10.4671 4.68163 10.1418 4.97462L8.19276 6.72972C8.05821 6.85087 7.99968 7.0353 8.03973 7.21187L8.62873 9.80846C8.72772 10.2449 8.24749 10.5816 7.87093 10.3398L5.76989 8.99053Z" fill="#CDCDDD"/>
</svg>
