<svg width="42" height="45" viewBox="0 0 42 45" fill="none" xmlns="http://www.w3.org/2000/svg">
<g id="Search">
<g id="bckgrnd" filter="url(#filter0_d_1525_10225)">
<rect x="2" y="1" width="38" height="38" rx="19" fill="#186841" style="mix-blend-mode:exclusion" shape-rendering="crispEdges"/>
</g>
<path id="Search_2" d="M30.7049 28.2881L27.8813 25.4745C29.412 23.5834 30.1587 21.1771 29.9674 18.7518C29.7762 16.3264 28.6616 14.0668 26.8534 12.4391C25.0452 10.8113 22.6814 9.93946 20.2493 10.0033C17.8172 10.0671 15.5024 11.0617 13.782 12.782C12.0617 14.5024 11.0671 16.8172 11.0033 19.2493C10.9395 21.6814 11.8113 24.0452 13.4391 25.8534C15.0668 27.6616 17.3264 28.7762 19.7518 28.9674C22.1771 29.1587 24.5834 28.412 26.4745 26.8813L29.2881 29.7049C29.3808 29.7984 29.4912 29.8726 29.6128 29.9233C29.7344 29.9739 29.8648 30 29.9965 30C30.1282 30 30.2586 29.9739 30.3802 29.9233C30.5018 29.8726 30.6121 29.7984 30.7049 29.7049C30.7984 29.6121 30.8726 29.5018 30.9233 29.3802C30.9739 29.2586 31 29.1282 31 28.9965C31 28.8648 30.9739 28.7344 30.9233 28.6128C30.8726 28.4912 30.7984 28.3808 30.7049 28.2881ZM13.035 19.518C13.035 18.038 13.4739 16.5913 14.2961 15.3607C15.1184 14.1301 16.2871 13.171 17.6544 12.6046C19.0217 12.0383 20.5263 11.8901 21.9779 12.1788C23.4294 12.4675 24.7628 13.1802 25.8093 14.2267C26.8558 15.2733 27.5685 16.6066 27.8572 18.0582C28.146 19.5097 27.9978 21.0143 27.4314 22.3816C26.865 23.749 25.9059 24.9177 24.6753 25.7399C23.4448 26.5621 21.998 27.001 20.518 27.001C18.5334 27.001 16.6301 26.2126 15.2267 24.8093C13.8234 23.406 13.035 21.5026 13.035 19.518Z" fill="white"/>
</g>
<defs>
<filter id="filter0_d_1525_10225" x="0" y="0" width="42" height="42" filterUnits="userSpaceOnUse" color-interpolation-filters="sRGB">
<feFlood flood-opacity="0" result="BackgroundImageFix"/>
<feColorMatrix in="SourceAlpha" type="matrix" values="0 0 0 0 0 0 0 0 0 0 0 0 0 0 0 0 0 0 127 0" result="hardAlpha"/>
<feOffset dy="1"/>
<feGaussianBlur stdDeviation="1"/>
<feComposite in2="hardAlpha" operator="out"/>
<feColorMatrix type="matrix" values="0 0 0 0 0 0 0 0 0 0 0 0 0 0 0 0 0 0 0.55 0"/>
<feBlend mode="normal" in2="BackgroundImageFix" result="effect1_dropShadow_1525_10225"/>
<feBlend mode="normal" in="SourceGraphic" in2="effect1_dropShadow_1525_10225" result="shape"/>
</filter>
</defs>
</svg>
